Coordinates
version=1
nRows=17
nColumns=24
inDegrees=yes

Units are S.I. units (second, meters, Newtons, ...)
Angles are in degrees.

endheader
time	pelvis_tilt	pelvis_list	pelvis_rotation	pelvis_tx	pelvis_ty	pelvis_tz	hip_flexion_r	hip_adduction_r	hip_rotation_r	knee_angle_r	ankle_angle_r	subtalar_angle_r	mtp_angle_r	hip_flexion_l	hip_adduction_l	hip_rotation_l	knee_angle_l	ankle_angle_l	subtalar_angle_l	mtp_angle_l	lumbar_extension	lumbar_bending	lumbar_rotation
      1.15000000	      1.05926049	      0.82217725	     -7.16772057	      0.02158310	      0.99332721	      0.31226637	    -19.12278775	      0.79509398	      5.79552069	    -10.66132695	     11.57433767	     -8.22016878	      9.38984184	     20.37501870	      0.23441595	     -9.19486621	      0.42273445	      3.31644758	     -7.91064233	      3.93672646	     -4.82316338	     -1.49499512	     13.68370280
      1.15416667	      1.06976282	      0.96466419	     -7.24205372	      0.02796511	      0.99307039	      0.31209213	    -19.14918730	      0.57843976	      5.77360744	    -11.30516675	     11.27098511	     -8.27663499	     14.23154590	     20.38541161	      0.41758104	     -8.88061224	     -0.19131227	      3.01876347	     -8.39142035	      4.99030912	     -4.74906997	     -1.69885981	     13.73092057
      1.15833333	      1.11590876	      1.13649969	     -7.33440384	      0.03438380	      0.99289544	      0.31189833	    -19.16135129	      0.31060445	      5.64215649	    -12.05242831	     11.10363115	     -7.96579571	     14.28882643	     20.36971881	      0.62764690	     -8.70102573	     -0.84752923	      2.72459367	     -8.68072698	      5.00748911	     -4.71231937	     -1.93511010	     13.90293044
      1.16250000	      1.12001715	      1.30021976	     -7.41556958	      0.04082146	      0.99270245	      0.31169179	    -19.11222993	      0.06593052	      5.55212411	    -12.82939530	     10.87229989	     -7.77469513	     14.39162969	     20.38720584	      0.83186860	     -8.42215137	     -1.49212634	      2.35503255	     -9.11319103	      5.03955368	     -4.61841924	     -2.15410976	     14.02350607
      1.16666667	      1.15445066	      1.47541467	     -7.49332939	      0.04728149	      0.99258215	      0.31146723	    -19.07344928	     -0.19441059	      5.44175373	    -13.64310990	     10.60559724	     -7.57741062	     14.55436223	     20.36406391	      1.05597287	     -8.13802907	     -2.12745791	      1.94822096	     -9.56231548	      5.08696738	     -4.55892847	     -2.38996829	     14.13341042
      1.17083333	      1.23721572	      1.65697650	     -7.55441654	      0.05377580	      0.99257344	      0.31122404	    -19.08598558	     -0.46023367	      5.33296635	    -14.44744964	     10.24204768	     -7.46018419	     15.25252977	     20.26416144	      1.30516359	     -7.78521992	     -2.71448711	      1.45069553	    -10.13381155	      5.28434522	     -4.55389741	     -2.64656890	     14.20049679
      1.17500000	      1.21234159	      1.83160072	     -7.63973787	      0.06025590	      0.99244850	      0.31098121	    -18.90770905	     -0.71545484	      5.21594298	    -15.39669794	      9.93124064	     -7.24019489	     15.44491589	     20.33314490	      1.50671390	     -7.64083282	     -3.42984347	      1.09202733	    -10.36239062	      5.33173973	     -4.41154021	     -2.86548993	     14.30831625
      1.17916667	      1.24794861	      2.01965034	     -7.71248254	      0.06675977	      0.99244212	      0.31070863	    -18.78062812	     -0.99190027	      5.06809774	    -16.36044088	      9.56098231	     -7.01237546	     15.71122779	     20.30551918	      1.74327583	     -7.42413122	     -4.07712336	      0.64792928	    -10.72660078	      5.39051676	     -4.33875332	     -3.11290035	     14.40094189
      1.18333333	      1.28430893	      2.20941764	     -7.76378845	      0.07326395	      0.99247104	      0.31039791	    -18.63597023	     -1.26179611	      4.92124612	    -17.35286718	      9.15301209	     -6.80165420	     16.16371328	     20.29082761	      1.98726047	     -7.21601307	     -4.75641115	      0.21148973	    -11.14903955	      5.48230925	     -4.27385213	     -3.36693923	     14.47510838
      1.18750000	      1.29995216	      2.39792736	     -7.82558797	      0.07977135	      0.99251977	      0.31009267	    -18.42130298	     -1.53257937	      4.77103470	    -18.42639349	      8.69264536	     -6.60515409	     16.61567849	     20.29195352	      2.21743672	     -7.08084704	     -5.42789942	     -0.20278299	    -11.41194262	      5.56243419	     -4.17510720	     -3.60401011	     14.53404310
      1.19166667	      1.33827642	      2.59302142	     -7.88685056	      0.08628601	      0.99263650	      0.30976765	    -18.19832321	     -1.81653827	      4.60721042	    -19.54912201	      8.16612879	     -6.41298340	     17.05045845	     20.25100686	      2.45746538	     -6.96649447	     -6.06493015	     -0.58989987	    -11.61053065	      5.62924451	     -4.09441832	     -3.84754035	     14.56906127
      1.19583333	      1.41067059	      2.77645738	     -7.91691813	      0.09277882	      0.99282701	      0.30940833	    -18.00891636	     -2.08102474	      4.44994016	    -20.65685883	      7.50255621	     -6.39261712	     23.32932016	     20.20017361	      2.69412558	     -6.87401506	     -6.76330860	     -0.92501532	    -11.83424021	      6.49237243	     -4.07015540	     -4.09955785	     14.55471500
      1.20000000	      1.47132992	      2.96653115	     -7.96175035	      0.09925076	      0.99303324	      0.30904945	    -17.74856978	     -2.36001030	      4.28575608	    -21.87265000	      6.91306002	     -6.17870117	     23.36241940	     20.15177269	      2.92633656	     -6.85182596	     -7.44186900	     -1.22130692	    -11.92315534	      6.49071204	     -4.02462010	     -4.34061278	     14.59414510
      1.20416667	      1.50609230	      3.15104040	     -7.98826229	      0.10569366	      0.99323264	      0.30865154	    -17.42411113	     -2.62561762	      4.11725300	    -23.14843595	      6.31193633	     -5.96783807	     23.43445908	     20.13692834	      3.15390210	     -6.82096728	     -8.13667589	     -1.48322276	    -12.04304843	      6.48686183	     -3.95596520	     -4.57369405	     14.60380613
      1.20833333	      1.57985453	      3.33656274	     -8.01229521	      0.11211318	      0.99350932	      0.30824739	    -17.11338895	     -2.89833031	      3.94918488	    -24.46123047	      5.64859127	     -5.78948977	     23.51586104	     20.06735675	      3.38785871	     -6.80976382	     -8.80574875	     -1.70001778	    -12.11769401	      6.48102556	     -3.92911169	     -4.81251722	     14.59099668
      1.21250000	      1.63017674	      3.51533116	     -8.02406390	      0.11849457	      0.99377894	      0.30781316	    -16.73869400	     -3.16002068	      3.78140907	    -25.83662294	      4.98773920	     -5.60009989	     23.62601723	     20.02627487	      3.61287856	     -6.80919952	     -9.48556106	     -1.87847348	    -12.18030356	      6.47089611	     -3.88454096	     -5.03465885	     14.56576632
      1.21666667	      1.64490975	      3.66444379	     -7.98470408	      0.12483234	      0.99401516	      0.30732084	    -16.31409582	     -3.36943458	      3.60046776	    -27.22448535	      4.23171420	     -5.47669841	     25.45042434	     20.04882622	      3.80817657	     -6.80628197	    -10.23117505	     -1.93337910	    -12.11026247	      6.26906879	     -3.80856865	     -5.21915497	     14.58292146
